<mxfile host="app.diagrams.net" agent="Mozilla/5.0 (Windows NT 10.0; Win64; x64) AppleWebKit/537.36 (KHTML, like Gecko) Chrome/135.0.0.0 Safari/537.36" version="26.2.12" pages="2">
  <diagram name="money_forward" id="P04iQsn40nOnHYt584Wb">
    <mxGraphModel dx="2278" dy="1883" grid="1" gridSize="10" guides="1" tooltips="1" connect="1" arrows="1" fold="1" page="1" pageScale="1" pageWidth="850" pageHeight="1100" math="0" shadow="0">
      <root>
        <mxCell id="0" />
        <mxCell id="1" parent="0" />
        <mxCell id="qClTNM0V3BNYC2tbr2i5-1" value="&lt;font style=&quot;font-size: 15px;&quot;&gt;DB&lt;/font&gt;" style="image;aspect=fixed;perimeter=ellipsePerimeter;html=1;align=center;shadow=0;dashed=0;spacingTop=3;image=img/lib/active_directory/database.svg;" parent="1" vertex="1">
          <mxGeometry x="50" y="380" width="121.62" height="90" as="geometry" />
        </mxCell>
        <mxCell id="qClTNM0V3BNYC2tbr2i5-2" value="userRegistration microservice" style="aspect=fixed;sketch=0;html=1;dashed=0;whitespace=wrap;verticalLabelPosition=bottom;verticalAlign=top;fillColor=#2875E2;strokeColor=#ffffff;points=[[0.005,0.63,0],[0.1,0.2,0],[0.9,0.2,0],[0.5,0,0],[0.995,0.63,0],[0.72,0.99,0],[0.5,1,0],[0.28,0.99,0]];shape=mxgraph.kubernetes.icon2;kubernetesLabel=1;prIcon=api" parent="1" vertex="1">
          <mxGeometry x="390" y="150" width="83.33" height="80" as="geometry" />
        </mxCell>
        <mxCell id="qClTNM0V3BNYC2tbr2i5-35" style="edgeStyle=orthogonalEdgeStyle;rounded=0;orthogonalLoop=1;jettySize=auto;html=1;entryX=0.5;entryY=0;entryDx=0;entryDy=0;" parent="1" source="qClTNM0V3BNYC2tbr2i5-3" target="qClTNM0V3BNYC2tbr2i5-1" edge="1">
          <mxGeometry relative="1" as="geometry" />
        </mxCell>
        <mxCell id="qClTNM0V3BNYC2tbr2i5-3" value="&lt;font style=&quot;font-size: 14px;&quot;&gt;«interface»&lt;br&gt;&lt;/font&gt;&lt;b&gt;&lt;font style=&quot;font-size: 14px;&quot;&gt;userRegisterAccount&lt;br&gt;userVerifyAccount&lt;br&gt;userLogin -&amp;gt; return token&lt;br&gt;&lt;/font&gt;&lt;br&gt;&lt;/b&gt;" style="html=1;whiteSpace=wrap;" parent="1" vertex="1">
          <mxGeometry x="520" y="170" width="280" height="100" as="geometry" />
        </mxCell>
        <mxCell id="qClTNM0V3BNYC2tbr2i5-36" style="edgeStyle=orthogonalEdgeStyle;rounded=0;orthogonalLoop=1;jettySize=auto;html=1;entryX=1;entryY=0.5;entryDx=0;entryDy=0;" parent="1" source="qClTNM0V3BNYC2tbr2i5-4" target="qClTNM0V3BNYC2tbr2i5-1" edge="1">
          <mxGeometry relative="1" as="geometry" />
        </mxCell>
        <mxCell id="qClTNM0V3BNYC2tbr2i5-4" value="&lt;font style=&quot;font-size: 14px;&quot;&gt;«interface»&lt;br&gt;&lt;/font&gt;&lt;b&gt;&lt;font style=&quot;font-size: 14px;&quot;&gt;getBankAccountsList -&amp;gt; list&amp;lt;accounts&amp;gt;&lt;br&gt;getAccountDetails -&amp;gt; json &amp;lt;accointDeatils&amp;gt;&lt;br&gt;&lt;br&gt;&lt;/font&gt;&lt;br&gt;&lt;/b&gt;" style="html=1;whiteSpace=wrap;" parent="1" vertex="1">
          <mxGeometry x="510" y="350" width="300" height="100" as="geometry" />
        </mxCell>
        <mxCell id="qClTNM0V3BNYC2tbr2i5-33" style="edgeStyle=orthogonalEdgeStyle;rounded=0;orthogonalLoop=1;jettySize=auto;html=1;" parent="1" source="qClTNM0V3BNYC2tbr2i5-5" target="qClTNM0V3BNYC2tbr2i5-1" edge="1">
          <mxGeometry relative="1" as="geometry" />
        </mxCell>
        <mxCell id="qClTNM0V3BNYC2tbr2i5-34" style="edgeStyle=orthogonalEdgeStyle;rounded=0;orthogonalLoop=1;jettySize=auto;html=1;" parent="1" source="qClTNM0V3BNYC2tbr2i5-5" target="qClTNM0V3BNYC2tbr2i5-27" edge="1">
          <mxGeometry relative="1" as="geometry" />
        </mxCell>
        <mxCell id="qClTNM0V3BNYC2tbr2i5-5" value="&lt;font style=&quot;font-size: 14px;&quot;&gt;«interface»&lt;br&gt;&lt;/font&gt;&lt;b&gt;&lt;font style=&quot;font-size: 14px;&quot;&gt;getTransactionList -&amp;gt; List&amp;lt;transactionId&amp;gt;&lt;/font&gt;&lt;/b&gt;&lt;b&gt;&lt;font style=&quot;font-size: 14px;&quot;&gt;&lt;br&gt;getTransactionDetails(id)&lt;br&gt;&lt;br&gt;&lt;/font&gt;&lt;br&gt;&lt;/b&gt;" style="html=1;whiteSpace=wrap;" parent="1" vertex="1">
          <mxGeometry x="510" y="550" width="300" height="100" as="geometry" />
        </mxCell>
        <mxCell id="qClTNM0V3BNYC2tbr2i5-6" value="Assets" style="childLayout=tableLayout;recursiveResize=0;strokeColor=#98bf21;fillColor=#A7C942;shadow=1;" parent="1" vertex="1">
          <mxGeometry x="-220" y="90" width="584" height="84" as="geometry" />
        </mxCell>
        <mxCell id="qClTNM0V3BNYC2tbr2i5-7" style="shape=tableRow;horizontal=0;startSize=0;swimlaneHead=0;swimlaneBody=0;top=0;left=0;bottom=0;right=0;dropTarget=0;collapsible=0;recursiveResize=0;expand=0;fontStyle=0;strokeColor=inherit;fillColor=#ffffff;" parent="qClTNM0V3BNYC2tbr2i5-6" vertex="1">
          <mxGeometry width="584" height="33" as="geometry" />
        </mxCell>
        <mxCell id="qClTNM0V3BNYC2tbr2i5-104" value="job_id" style="connectable=0;recursiveResize=0;strokeColor=inherit;fillColor=#A7C942;align=center;fontStyle=1;fontColor=#FFFFFF;html=1;" parent="qClTNM0V3BNYC2tbr2i5-7" vertex="1">
          <mxGeometry width="118" height="33" as="geometry">
            <mxRectangle width="118" height="33" as="alternateBounds" />
          </mxGeometry>
        </mxCell>
        <mxCell id="qClTNM0V3BNYC2tbr2i5-9" value="start_date" style="connectable=0;recursiveResize=0;strokeColor=inherit;fillColor=#A7C942;align=center;fontStyle=1;fontColor=#FFFFFF;html=1;" parent="qClTNM0V3BNYC2tbr2i5-7" vertex="1">
          <mxGeometry x="118" width="118" height="33" as="geometry">
            <mxRectangle width="118" height="33" as="alternateBounds" />
          </mxGeometry>
        </mxCell>
        <mxCell id="qClTNM0V3BNYC2tbr2i5-10" value="end_date" style="connectable=0;recursiveResize=0;strokeColor=inherit;fillColor=#A7C942;align=center;fontStyle=1;fontColor=#FFFFFF;html=1;" parent="qClTNM0V3BNYC2tbr2i5-7" vertex="1">
          <mxGeometry x="236" width="116" height="33" as="geometry">
            <mxRectangle width="116" height="33" as="alternateBounds" />
          </mxGeometry>
        </mxCell>
        <mxCell id="qClTNM0V3BNYC2tbr2i5-57" value="status" style="connectable=0;recursiveResize=0;strokeColor=inherit;fillColor=#A7C942;align=center;fontStyle=1;fontColor=#FFFFFF;html=1;" parent="qClTNM0V3BNYC2tbr2i5-7" vertex="1">
          <mxGeometry x="352" width="116" height="33" as="geometry">
            <mxRectangle width="116" height="33" as="alternateBounds" />
          </mxGeometry>
        </mxCell>
        <mxCell id="qClTNM0V3BNYC2tbr2i5-84" value="logs" style="connectable=0;recursiveResize=0;strokeColor=inherit;fillColor=#A7C942;align=center;fontStyle=1;fontColor=#FFFFFF;html=1;" parent="qClTNM0V3BNYC2tbr2i5-7" vertex="1">
          <mxGeometry x="468" width="116" height="33" as="geometry">
            <mxRectangle width="116" height="33" as="alternateBounds" />
          </mxGeometry>
        </mxCell>
        <mxCell id="qClTNM0V3BNYC2tbr2i5-11" value="" style="shape=tableRow;horizontal=0;startSize=0;swimlaneHead=0;swimlaneBody=0;top=0;left=0;bottom=0;right=0;dropTarget=0;collapsible=0;recursiveResize=0;expand=0;fontStyle=0;strokeColor=inherit;fillColor=#ffffff;" parent="qClTNM0V3BNYC2tbr2i5-6" vertex="1">
          <mxGeometry y="33" width="584" height="20" as="geometry" />
        </mxCell>
        <mxCell id="qClTNM0V3BNYC2tbr2i5-105" value="12345678" style="connectable=0;recursiveResize=0;strokeColor=inherit;fillColor=inherit;align=center;whiteSpace=wrap;html=1;" parent="qClTNM0V3BNYC2tbr2i5-11" vertex="1">
          <mxGeometry width="118" height="20" as="geometry">
            <mxRectangle width="118" height="20" as="alternateBounds" />
          </mxGeometry>
        </mxCell>
        <mxCell id="qClTNM0V3BNYC2tbr2i5-13" value="user@email.com" style="connectable=0;recursiveResize=0;strokeColor=inherit;fillColor=inherit;align=center;whiteSpace=wrap;html=1;" parent="qClTNM0V3BNYC2tbr2i5-11" vertex="1">
          <mxGeometry x="118" width="118" height="20" as="geometry">
            <mxRectangle width="118" height="20" as="alternateBounds" />
          </mxGeometry>
        </mxCell>
        <mxCell id="qClTNM0V3BNYC2tbr2i5-14" value="123adf4567888" style="connectable=0;recursiveResize=0;strokeColor=inherit;fillColor=inherit;align=center;whiteSpace=wrap;html=1;" parent="qClTNM0V3BNYC2tbr2i5-11" vertex="1">
          <mxGeometry x="236" width="116" height="20" as="geometry">
            <mxRectangle width="116" height="20" as="alternateBounds" />
          </mxGeometry>
        </mxCell>
        <mxCell id="qClTNM0V3BNYC2tbr2i5-58" value="Done" style="connectable=0;recursiveResize=0;strokeColor=inherit;fillColor=inherit;align=center;whiteSpace=wrap;html=1;" parent="qClTNM0V3BNYC2tbr2i5-11" vertex="1">
          <mxGeometry x="352" width="116" height="20" as="geometry">
            <mxRectangle width="116" height="20" as="alternateBounds" />
          </mxGeometry>
        </mxCell>
        <mxCell id="qClTNM0V3BNYC2tbr2i5-85" style="connectable=0;recursiveResize=0;strokeColor=inherit;fillColor=inherit;align=center;whiteSpace=wrap;html=1;" parent="qClTNM0V3BNYC2tbr2i5-11" vertex="1">
          <mxGeometry x="468" width="116" height="20" as="geometry">
            <mxRectangle width="116" height="20" as="alternateBounds" />
          </mxGeometry>
        </mxCell>
        <mxCell id="qClTNM0V3BNYC2tbr2i5-15" value="" style="shape=tableRow;horizontal=0;startSize=0;swimlaneHead=0;swimlaneBody=0;top=0;left=0;bottom=0;right=0;dropTarget=0;collapsible=0;recursiveResize=0;expand=0;fontStyle=1;strokeColor=inherit;fillColor=#EAF2D3;" parent="qClTNM0V3BNYC2tbr2i5-6" vertex="1">
          <mxGeometry y="53" width="584" height="31" as="geometry" />
        </mxCell>
        <mxCell id="qClTNM0V3BNYC2tbr2i5-106" style="connectable=0;recursiveResize=0;strokeColor=inherit;fillColor=inherit;whiteSpace=wrap;html=1;" parent="qClTNM0V3BNYC2tbr2i5-15" vertex="1">
          <mxGeometry width="118" height="31" as="geometry">
            <mxRectangle width="118" height="31" as="alternateBounds" />
          </mxGeometry>
        </mxCell>
        <mxCell id="qClTNM0V3BNYC2tbr2i5-17" value="" style="connectable=0;recursiveResize=0;strokeColor=inherit;fillColor=inherit;whiteSpace=wrap;html=1;" parent="qClTNM0V3BNYC2tbr2i5-15" vertex="1">
          <mxGeometry x="118" width="118" height="31" as="geometry">
            <mxRectangle width="118" height="31" as="alternateBounds" />
          </mxGeometry>
        </mxCell>
        <mxCell id="qClTNM0V3BNYC2tbr2i5-18" value="" style="connectable=0;recursiveResize=0;strokeColor=inherit;fillColor=inherit;whiteSpace=wrap;html=1;" parent="qClTNM0V3BNYC2tbr2i5-15" vertex="1">
          <mxGeometry x="236" width="116" height="31" as="geometry">
            <mxRectangle width="116" height="31" as="alternateBounds" />
          </mxGeometry>
        </mxCell>
        <mxCell id="qClTNM0V3BNYC2tbr2i5-59" style="connectable=0;recursiveResize=0;strokeColor=inherit;fillColor=inherit;whiteSpace=wrap;html=1;" parent="qClTNM0V3BNYC2tbr2i5-15" vertex="1">
          <mxGeometry x="352" width="116" height="31" as="geometry">
            <mxRectangle width="116" height="31" as="alternateBounds" />
          </mxGeometry>
        </mxCell>
        <mxCell id="qClTNM0V3BNYC2tbr2i5-86" style="connectable=0;recursiveResize=0;strokeColor=inherit;fillColor=inherit;whiteSpace=wrap;html=1;" parent="qClTNM0V3BNYC2tbr2i5-15" vertex="1">
          <mxGeometry x="468" width="116" height="31" as="geometry">
            <mxRectangle width="116" height="31" as="alternateBounds" />
          </mxGeometry>
        </mxCell>
        <mxCell id="qClTNM0V3BNYC2tbr2i5-27" value="Redis" style="image;sketch=0;aspect=fixed;html=1;points=[];align=center;fontSize=12;image=img/lib/mscae/Cache_Redis_Product.svg;" parent="1" vertex="1">
          <mxGeometry x="610" y="700" width="72.62" height="61" as="geometry" />
        </mxCell>
        <mxCell id="qClTNM0V3BNYC2tbr2i5-29" value="bankAccount microservice" style="aspect=fixed;sketch=0;html=1;dashed=0;whitespace=wrap;verticalLabelPosition=bottom;verticalAlign=top;fillColor=#2875E2;strokeColor=#ffffff;points=[[0.005,0.63,0],[0.1,0.2,0],[0.9,0.2,0],[0.5,0,0],[0.995,0.63,0],[0.72,0.99,0],[0.5,1,0],[0.28,0.99,0]];shape=mxgraph.kubernetes.icon2;kubernetesLabel=1;prIcon=api" parent="1" vertex="1">
          <mxGeometry x="383" y="350" width="83.33" height="80" as="geometry" />
        </mxCell>
        <mxCell id="qClTNM0V3BNYC2tbr2i5-30" value="transaction microservice" style="aspect=fixed;sketch=0;html=1;dashed=0;whitespace=wrap;verticalLabelPosition=bottom;verticalAlign=top;fillColor=#2875E2;strokeColor=#ffffff;points=[[0.005,0.63,0],[0.1,0.2,0],[0.9,0.2,0],[0.5,0,0],[0.995,0.63,0],[0.72,0.99,0],[0.5,1,0],[0.28,0.99,0]];shape=mxgraph.kubernetes.icon2;kubernetesLabel=1;prIcon=api" parent="1" vertex="1">
          <mxGeometry x="400" y="600" width="83.33" height="80" as="geometry" />
        </mxCell>
        <mxCell id="qClTNM0V3BNYC2tbr2i5-38" value="Assets" style="childLayout=tableLayout;recursiveResize=0;strokeColor=#98bf21;fillColor=#A7C942;shadow=1;" parent="1" vertex="1">
          <mxGeometry x="-270" y="723" width="686" height="84" as="geometry" />
        </mxCell>
        <mxCell id="qClTNM0V3BNYC2tbr2i5-39" style="shape=tableRow;horizontal=0;startSize=0;swimlaneHead=0;swimlaneBody=0;top=0;left=0;bottom=0;right=0;dropTarget=0;collapsible=0;recursiveResize=0;expand=0;fontStyle=0;strokeColor=inherit;fillColor=#ffffff;" parent="qClTNM0V3BNYC2tbr2i5-38" vertex="1">
          <mxGeometry width="686" height="33" as="geometry" />
        </mxCell>
        <mxCell id="qClTNM0V3BNYC2tbr2i5-40" value="id" style="connectable=0;recursiveResize=0;strokeColor=inherit;fillColor=#A7C942;align=center;fontStyle=1;fontColor=#FFFFFF;html=1;" parent="qClTNM0V3BNYC2tbr2i5-39" vertex="1">
          <mxGeometry width="136" height="33" as="geometry">
            <mxRectangle width="136" height="33" as="alternateBounds" />
          </mxGeometry>
        </mxCell>
        <mxCell id="qClTNM0V3BNYC2tbr2i5-41" value="bank_account_No" style="connectable=0;recursiveResize=0;strokeColor=inherit;fillColor=#A7C942;align=center;fontStyle=1;fontColor=#FFFFFF;html=1;" parent="qClTNM0V3BNYC2tbr2i5-39" vertex="1">
          <mxGeometry x="136" width="138" height="33" as="geometry">
            <mxRectangle width="138" height="33" as="alternateBounds" />
          </mxGeometry>
        </mxCell>
        <mxCell id="qClTNM0V3BNYC2tbr2i5-54" value="balance" style="connectable=0;recursiveResize=0;strokeColor=inherit;fillColor=#A7C942;align=center;fontStyle=1;fontColor=#FFFFFF;html=1;" parent="qClTNM0V3BNYC2tbr2i5-39" vertex="1">
          <mxGeometry x="274" width="138" height="33" as="geometry">
            <mxRectangle width="138" height="33" as="alternateBounds" />
          </mxGeometry>
        </mxCell>
        <mxCell id="qClTNM0V3BNYC2tbr2i5-60" value="account_details" style="connectable=0;recursiveResize=0;strokeColor=inherit;fillColor=#A7C942;align=center;fontStyle=1;fontColor=#FFFFFF;html=1;" parent="qClTNM0V3BNYC2tbr2i5-39" vertex="1">
          <mxGeometry x="412" width="138" height="33" as="geometry">
            <mxRectangle width="138" height="33" as="alternateBounds" />
          </mxGeometry>
        </mxCell>
        <mxCell id="qClTNM0V3BNYC2tbr2i5-42" value="email" style="connectable=0;recursiveResize=0;strokeColor=inherit;fillColor=#A7C942;align=center;fontStyle=1;fontColor=#FFFFFF;html=1;" parent="qClTNM0V3BNYC2tbr2i5-39" vertex="1">
          <mxGeometry x="550" width="136" height="33" as="geometry">
            <mxRectangle width="136" height="33" as="alternateBounds" />
          </mxGeometry>
        </mxCell>
        <mxCell id="qClTNM0V3BNYC2tbr2i5-43" value="" style="shape=tableRow;horizontal=0;startSize=0;swimlaneHead=0;swimlaneBody=0;top=0;left=0;bottom=0;right=0;dropTarget=0;collapsible=0;recursiveResize=0;expand=0;fontStyle=0;strokeColor=inherit;fillColor=#ffffff;" parent="qClTNM0V3BNYC2tbr2i5-38" vertex="1">
          <mxGeometry y="33" width="686" height="20" as="geometry" />
        </mxCell>
        <mxCell id="qClTNM0V3BNYC2tbr2i5-44" value="123" style="connectable=0;recursiveResize=0;strokeColor=inherit;fillColor=inherit;align=center;whiteSpace=wrap;html=1;" parent="qClTNM0V3BNYC2tbr2i5-43" vertex="1">
          <mxGeometry width="136" height="20" as="geometry">
            <mxRectangle width="136" height="20" as="alternateBounds" />
          </mxGeometry>
        </mxCell>
        <mxCell id="qClTNM0V3BNYC2tbr2i5-45" value="12345 (index)" style="connectable=0;recursiveResize=0;strokeColor=inherit;fillColor=inherit;align=center;whiteSpace=wrap;html=1;" parent="qClTNM0V3BNYC2tbr2i5-43" vertex="1">
          <mxGeometry x="136" width="138" height="20" as="geometry">
            <mxRectangle width="138" height="20" as="alternateBounds" />
          </mxGeometry>
        </mxCell>
        <mxCell id="qClTNM0V3BNYC2tbr2i5-55" value="10000" style="connectable=0;recursiveResize=0;strokeColor=inherit;fillColor=inherit;align=center;whiteSpace=wrap;html=1;" parent="qClTNM0V3BNYC2tbr2i5-43" vertex="1">
          <mxGeometry x="274" width="138" height="20" as="geometry">
            <mxRectangle width="138" height="20" as="alternateBounds" />
          </mxGeometry>
        </mxCell>
        <mxCell id="qClTNM0V3BNYC2tbr2i5-61" value="jsonb" style="connectable=0;recursiveResize=0;strokeColor=inherit;fillColor=inherit;align=center;whiteSpace=wrap;html=1;" parent="qClTNM0V3BNYC2tbr2i5-43" vertex="1">
          <mxGeometry x="412" width="138" height="20" as="geometry">
            <mxRectangle width="138" height="20" as="alternateBounds" />
          </mxGeometry>
        </mxCell>
        <mxCell id="qClTNM0V3BNYC2tbr2i5-46" value="user@email.com" style="connectable=0;recursiveResize=0;strokeColor=inherit;fillColor=inherit;align=center;whiteSpace=wrap;html=1;" parent="qClTNM0V3BNYC2tbr2i5-43" vertex="1">
          <mxGeometry x="550" width="136" height="20" as="geometry">
            <mxRectangle width="136" height="20" as="alternateBounds" />
          </mxGeometry>
        </mxCell>
        <mxCell id="qClTNM0V3BNYC2tbr2i5-47" value="" style="shape=tableRow;horizontal=0;startSize=0;swimlaneHead=0;swimlaneBody=0;top=0;left=0;bottom=0;right=0;dropTarget=0;collapsible=0;recursiveResize=0;expand=0;fontStyle=1;strokeColor=inherit;fillColor=#EAF2D3;" parent="qClTNM0V3BNYC2tbr2i5-38" vertex="1">
          <mxGeometry y="53" width="686" height="31" as="geometry" />
        </mxCell>
        <mxCell id="qClTNM0V3BNYC2tbr2i5-48" value="" style="connectable=0;recursiveResize=0;strokeColor=inherit;fillColor=inherit;whiteSpace=wrap;html=1;" parent="qClTNM0V3BNYC2tbr2i5-47" vertex="1">
          <mxGeometry width="136" height="31" as="geometry">
            <mxRectangle width="136" height="31" as="alternateBounds" />
          </mxGeometry>
        </mxCell>
        <mxCell id="qClTNM0V3BNYC2tbr2i5-49" value="" style="connectable=0;recursiveResize=0;strokeColor=inherit;fillColor=inherit;whiteSpace=wrap;html=1;" parent="qClTNM0V3BNYC2tbr2i5-47" vertex="1">
          <mxGeometry x="136" width="138" height="31" as="geometry">
            <mxRectangle width="138" height="31" as="alternateBounds" />
          </mxGeometry>
        </mxCell>
        <mxCell id="qClTNM0V3BNYC2tbr2i5-56" style="connectable=0;recursiveResize=0;strokeColor=inherit;fillColor=inherit;whiteSpace=wrap;html=1;" parent="qClTNM0V3BNYC2tbr2i5-47" vertex="1">
          <mxGeometry x="274" width="138" height="31" as="geometry">
            <mxRectangle width="138" height="31" as="alternateBounds" />
          </mxGeometry>
        </mxCell>
        <mxCell id="qClTNM0V3BNYC2tbr2i5-62" style="connectable=0;recursiveResize=0;strokeColor=inherit;fillColor=inherit;whiteSpace=wrap;html=1;" parent="qClTNM0V3BNYC2tbr2i5-47" vertex="1">
          <mxGeometry x="412" width="138" height="31" as="geometry">
            <mxRectangle width="138" height="31" as="alternateBounds" />
          </mxGeometry>
        </mxCell>
        <mxCell id="qClTNM0V3BNYC2tbr2i5-50" value="" style="connectable=0;recursiveResize=0;strokeColor=inherit;fillColor=inherit;whiteSpace=wrap;html=1;" parent="qClTNM0V3BNYC2tbr2i5-47" vertex="1">
          <mxGeometry x="550" width="136" height="31" as="geometry">
            <mxRectangle width="136" height="31" as="alternateBounds" />
          </mxGeometry>
        </mxCell>
        <mxCell id="qClTNM0V3BNYC2tbr2i5-63" value="Assets" style="childLayout=tableLayout;recursiveResize=0;strokeColor=#98bf21;fillColor=#A7C942;shadow=1;" parent="1" vertex="1">
          <mxGeometry x="-260" y="870" width="1228" height="84" as="geometry" />
        </mxCell>
        <mxCell id="qClTNM0V3BNYC2tbr2i5-64" style="shape=tableRow;horizontal=0;startSize=0;swimlaneHead=0;swimlaneBody=0;top=0;left=0;bottom=0;right=0;dropTarget=0;collapsible=0;recursiveResize=0;expand=0;fontStyle=0;strokeColor=inherit;fillColor=#ffffff;" parent="qClTNM0V3BNYC2tbr2i5-63" vertex="1">
          <mxGeometry width="1228" height="33" as="geometry" />
        </mxCell>
        <mxCell id="qClTNM0V3BNYC2tbr2i5-65" value="id" style="connectable=0;recursiveResize=0;strokeColor=inherit;fillColor=#A7C942;align=center;fontStyle=1;fontColor=#FFFFFF;html=1;" parent="qClTNM0V3BNYC2tbr2i5-64" vertex="1">
          <mxGeometry width="136" height="33" as="geometry">
            <mxRectangle width="136" height="33" as="alternateBounds" />
          </mxGeometry>
        </mxCell>
        <mxCell id="qClTNM0V3BNYC2tbr2i5-67" value="transaction_id" style="connectable=0;recursiveResize=0;strokeColor=inherit;fillColor=#A7C942;align=center;fontStyle=1;fontColor=#FFFFFF;html=1;" parent="qClTNM0V3BNYC2tbr2i5-64" vertex="1">
          <mxGeometry x="136" width="138" height="33" as="geometry">
            <mxRectangle width="138" height="33" as="alternateBounds" />
          </mxGeometry>
        </mxCell>
        <mxCell id="qClTNM0V3BNYC2tbr2i5-68" value="transaction_details" style="connectable=0;recursiveResize=0;strokeColor=inherit;fillColor=#A7C942;align=center;fontStyle=1;fontColor=#FFFFFF;html=1;" parent="qClTNM0V3BNYC2tbr2i5-64" vertex="1">
          <mxGeometry x="274" width="138" height="33" as="geometry">
            <mxRectangle width="138" height="33" as="alternateBounds" />
          </mxGeometry>
        </mxCell>
        <mxCell id="qClTNM0V3BNYC2tbr2i5-69" value="email" style="connectable=0;recursiveResize=0;strokeColor=inherit;fillColor=#A7C942;align=center;fontStyle=1;fontColor=#FFFFFF;html=1;" parent="qClTNM0V3BNYC2tbr2i5-64" vertex="1">
          <mxGeometry x="412" width="136" height="33" as="geometry">
            <mxRectangle width="136" height="33" as="alternateBounds" />
          </mxGeometry>
        </mxCell>
        <mxCell id="qClTNM0V3BNYC2tbr2i5-87" value="transaction_date" style="connectable=0;recursiveResize=0;strokeColor=inherit;fillColor=#A7C942;align=center;fontStyle=1;fontColor=#FFFFFF;html=1;" parent="qClTNM0V3BNYC2tbr2i5-64" vertex="1">
          <mxGeometry x="548" width="136" height="33" as="geometry">
            <mxRectangle width="136" height="33" as="alternateBounds" />
          </mxGeometry>
        </mxCell>
        <mxCell id="qClTNM0V3BNYC2tbr2i5-90" value="source_bank_account" style="connectable=0;recursiveResize=0;strokeColor=inherit;fillColor=#A7C942;align=center;fontStyle=1;fontColor=#FFFFFF;html=1;" parent="qClTNM0V3BNYC2tbr2i5-64" vertex="1">
          <mxGeometry x="684" width="136" height="33" as="geometry">
            <mxRectangle width="136" height="33" as="alternateBounds" />
          </mxGeometry>
        </mxCell>
        <mxCell id="qClTNM0V3BNYC2tbr2i5-93" value="target_bank_account" style="connectable=0;recursiveResize=0;strokeColor=inherit;fillColor=#A7C942;align=center;fontStyle=1;fontColor=#FFFFFF;html=1;" parent="qClTNM0V3BNYC2tbr2i5-64" vertex="1">
          <mxGeometry x="820" width="136" height="33" as="geometry">
            <mxRectangle width="136" height="33" as="alternateBounds" />
          </mxGeometry>
        </mxCell>
        <mxCell id="qClTNM0V3BNYC2tbr2i5-96" value="amount" style="connectable=0;recursiveResize=0;strokeColor=inherit;fillColor=#A7C942;align=center;fontStyle=1;fontColor=#FFFFFF;html=1;" parent="qClTNM0V3BNYC2tbr2i5-64" vertex="1">
          <mxGeometry x="956" width="136" height="33" as="geometry">
            <mxRectangle width="136" height="33" as="alternateBounds" />
          </mxGeometry>
        </mxCell>
        <mxCell id="qClTNM0V3BNYC2tbr2i5-99" value="currency" style="connectable=0;recursiveResize=0;strokeColor=inherit;fillColor=#A7C942;align=center;fontStyle=1;fontColor=#FFFFFF;html=1;" parent="qClTNM0V3BNYC2tbr2i5-64" vertex="1">
          <mxGeometry x="1092" width="136" height="33" as="geometry">
            <mxRectangle width="136" height="33" as="alternateBounds" />
          </mxGeometry>
        </mxCell>
        <mxCell id="qClTNM0V3BNYC2tbr2i5-70" value="" style="shape=tableRow;horizontal=0;startSize=0;swimlaneHead=0;swimlaneBody=0;top=0;left=0;bottom=0;right=0;dropTarget=0;collapsible=0;recursiveResize=0;expand=0;fontStyle=0;strokeColor=inherit;fillColor=#ffffff;" parent="qClTNM0V3BNYC2tbr2i5-63" vertex="1">
          <mxGeometry y="33" width="1228" height="20" as="geometry" />
        </mxCell>
        <mxCell id="qClTNM0V3BNYC2tbr2i5-71" value="12" style="connectable=0;recursiveResize=0;strokeColor=inherit;fillColor=inherit;align=center;whiteSpace=wrap;html=1;" parent="qClTNM0V3BNYC2tbr2i5-70" vertex="1">
          <mxGeometry width="136" height="20" as="geometry">
            <mxRectangle width="136" height="20" as="alternateBounds" />
          </mxGeometry>
        </mxCell>
        <mxCell id="qClTNM0V3BNYC2tbr2i5-73" value="789000" style="connectable=0;recursiveResize=0;strokeColor=inherit;fillColor=inherit;align=center;whiteSpace=wrap;html=1;" parent="qClTNM0V3BNYC2tbr2i5-70" vertex="1">
          <mxGeometry x="136" width="138" height="20" as="geometry">
            <mxRectangle width="138" height="20" as="alternateBounds" />
          </mxGeometry>
        </mxCell>
        <mxCell id="qClTNM0V3BNYC2tbr2i5-74" value="jsonb" style="connectable=0;recursiveResize=0;strokeColor=inherit;fillColor=inherit;align=center;whiteSpace=wrap;html=1;" parent="qClTNM0V3BNYC2tbr2i5-70" vertex="1">
          <mxGeometry x="274" width="138" height="20" as="geometry">
            <mxRectangle width="138" height="20" as="alternateBounds" />
          </mxGeometry>
        </mxCell>
        <mxCell id="qClTNM0V3BNYC2tbr2i5-75" value="user@email.com" style="connectable=0;recursiveResize=0;strokeColor=inherit;fillColor=inherit;align=center;whiteSpace=wrap;html=1;" parent="qClTNM0V3BNYC2tbr2i5-70" vertex="1">
          <mxGeometry x="412" width="136" height="20" as="geometry">
            <mxRectangle width="136" height="20" as="alternateBounds" />
          </mxGeometry>
        </mxCell>
        <mxCell id="qClTNM0V3BNYC2tbr2i5-88" value="unix_time (Int)" style="connectable=0;recursiveResize=0;strokeColor=inherit;fillColor=inherit;align=center;whiteSpace=wrap;html=1;" parent="qClTNM0V3BNYC2tbr2i5-70" vertex="1">
          <mxGeometry x="548" width="136" height="20" as="geometry">
            <mxRectangle width="136" height="20" as="alternateBounds" />
          </mxGeometry>
        </mxCell>
        <mxCell id="qClTNM0V3BNYC2tbr2i5-91" value="A" style="connectable=0;recursiveResize=0;strokeColor=inherit;fillColor=inherit;align=center;whiteSpace=wrap;html=1;" parent="qClTNM0V3BNYC2tbr2i5-70" vertex="1">
          <mxGeometry x="684" width="136" height="20" as="geometry">
            <mxRectangle width="136" height="20" as="alternateBounds" />
          </mxGeometry>
        </mxCell>
        <mxCell id="qClTNM0V3BNYC2tbr2i5-94" value="B" style="connectable=0;recursiveResize=0;strokeColor=inherit;fillColor=inherit;align=center;whiteSpace=wrap;html=1;" parent="qClTNM0V3BNYC2tbr2i5-70" vertex="1">
          <mxGeometry x="820" width="136" height="20" as="geometry">
            <mxRectangle width="136" height="20" as="alternateBounds" />
          </mxGeometry>
        </mxCell>
        <mxCell id="qClTNM0V3BNYC2tbr2i5-97" value="1000000" style="connectable=0;recursiveResize=0;strokeColor=inherit;fillColor=inherit;align=center;whiteSpace=wrap;html=1;" parent="qClTNM0V3BNYC2tbr2i5-70" vertex="1">
          <mxGeometry x="956" width="136" height="20" as="geometry">
            <mxRectangle width="136" height="20" as="alternateBounds" />
          </mxGeometry>
        </mxCell>
        <mxCell id="qClTNM0V3BNYC2tbr2i5-100" value="VND" style="connectable=0;recursiveResize=0;strokeColor=inherit;fillColor=inherit;align=center;whiteSpace=wrap;html=1;" parent="qClTNM0V3BNYC2tbr2i5-70" vertex="1">
          <mxGeometry x="1092" width="136" height="20" as="geometry">
            <mxRectangle width="136" height="20" as="alternateBounds" />
          </mxGeometry>
        </mxCell>
        <mxCell id="qClTNM0V3BNYC2tbr2i5-76" value="" style="shape=tableRow;horizontal=0;startSize=0;swimlaneHead=0;swimlaneBody=0;top=0;left=0;bottom=0;right=0;dropTarget=0;collapsible=0;recursiveResize=0;expand=0;fontStyle=1;strokeColor=inherit;fillColor=#EAF2D3;" parent="qClTNM0V3BNYC2tbr2i5-63" vertex="1">
          <mxGeometry y="53" width="1228" height="31" as="geometry" />
        </mxCell>
        <mxCell id="qClTNM0V3BNYC2tbr2i5-77" value="" style="connectable=0;recursiveResize=0;strokeColor=inherit;fillColor=inherit;whiteSpace=wrap;html=1;" parent="qClTNM0V3BNYC2tbr2i5-76" vertex="1">
          <mxGeometry width="136" height="31" as="geometry">
            <mxRectangle width="136" height="31" as="alternateBounds" />
          </mxGeometry>
        </mxCell>
        <mxCell id="qClTNM0V3BNYC2tbr2i5-79" value="9876555" style="connectable=0;recursiveResize=0;strokeColor=inherit;fillColor=inherit;whiteSpace=wrap;html=1;" parent="qClTNM0V3BNYC2tbr2i5-76" vertex="1">
          <mxGeometry x="136" width="138" height="31" as="geometry">
            <mxRectangle width="138" height="31" as="alternateBounds" />
          </mxGeometry>
        </mxCell>
        <mxCell id="qClTNM0V3BNYC2tbr2i5-80" style="connectable=0;recursiveResize=0;strokeColor=inherit;fillColor=inherit;whiteSpace=wrap;html=1;" parent="qClTNM0V3BNYC2tbr2i5-76" vertex="1">
          <mxGeometry x="274" width="138" height="31" as="geometry">
            <mxRectangle width="138" height="31" as="alternateBounds" />
          </mxGeometry>
        </mxCell>
        <mxCell id="qClTNM0V3BNYC2tbr2i5-81" value="user@email.com" style="connectable=0;recursiveResize=0;strokeColor=inherit;fillColor=inherit;whiteSpace=wrap;html=1;" parent="qClTNM0V3BNYC2tbr2i5-76" vertex="1">
          <mxGeometry x="412" width="136" height="31" as="geometry">
            <mxRectangle width="136" height="31" as="alternateBounds" />
          </mxGeometry>
        </mxCell>
        <mxCell id="qClTNM0V3BNYC2tbr2i5-89" style="connectable=0;recursiveResize=0;strokeColor=inherit;fillColor=inherit;whiteSpace=wrap;html=1;" parent="qClTNM0V3BNYC2tbr2i5-76" vertex="1">
          <mxGeometry x="548" width="136" height="31" as="geometry">
            <mxRectangle width="136" height="31" as="alternateBounds" />
          </mxGeometry>
        </mxCell>
        <mxCell id="qClTNM0V3BNYC2tbr2i5-92" value="B" style="connectable=0;recursiveResize=0;strokeColor=inherit;fillColor=inherit;whiteSpace=wrap;html=1;" parent="qClTNM0V3BNYC2tbr2i5-76" vertex="1">
          <mxGeometry x="684" width="136" height="31" as="geometry">
            <mxRectangle width="136" height="31" as="alternateBounds" />
          </mxGeometry>
        </mxCell>
        <mxCell id="qClTNM0V3BNYC2tbr2i5-95" value="C" style="connectable=0;recursiveResize=0;strokeColor=inherit;fillColor=inherit;whiteSpace=wrap;html=1;" parent="qClTNM0V3BNYC2tbr2i5-76" vertex="1">
          <mxGeometry x="820" width="136" height="31" as="geometry">
            <mxRectangle width="136" height="31" as="alternateBounds" />
          </mxGeometry>
        </mxCell>
        <mxCell id="qClTNM0V3BNYC2tbr2i5-98" value="4000000" style="connectable=0;recursiveResize=0;strokeColor=inherit;fillColor=inherit;whiteSpace=wrap;html=1;" parent="qClTNM0V3BNYC2tbr2i5-76" vertex="1">
          <mxGeometry x="956" width="136" height="31" as="geometry">
            <mxRectangle width="136" height="31" as="alternateBounds" />
          </mxGeometry>
        </mxCell>
        <mxCell id="qClTNM0V3BNYC2tbr2i5-101" value="VND" style="connectable=0;recursiveResize=0;strokeColor=inherit;fillColor=inherit;whiteSpace=wrap;html=1;" parent="qClTNM0V3BNYC2tbr2i5-76" vertex="1">
          <mxGeometry x="1092" width="136" height="31" as="geometry">
            <mxRectangle width="136" height="31" as="alternateBounds" />
          </mxGeometry>
        </mxCell>
        <mxCell id="qClTNM0V3BNYC2tbr2i5-82" value="Bank_Account" style="text;html=1;align=center;verticalAlign=middle;whiteSpace=wrap;rounded=0;" parent="1" vertex="1">
          <mxGeometry x="30" y="680" width="60" height="30" as="geometry" />
        </mxCell>
        <mxCell id="qClTNM0V3BNYC2tbr2i5-83" value="Transaction" style="text;html=1;align=center;verticalAlign=middle;whiteSpace=wrap;rounded=0;" parent="1" vertex="1">
          <mxGeometry x="20" y="840" width="60" height="30" as="geometry" />
        </mxCell>
        <mxCell id="qClTNM0V3BNYC2tbr2i5-102" value="select * from Transaction where source_bank = B or target_bank = B and email=user@email.com&lt;br&gt;&lt;br&gt;&lt;font style=&quot;font-size: 14px;&quot;&gt;index (source),&lt;br&gt;index(target),&lt;br&gt;index(email)&lt;br&gt;index(email, source, target,)&lt;/font&gt;" style="text;html=1;align=center;verticalAlign=middle;whiteSpace=wrap;rounded=0;" parent="1" vertex="1">
          <mxGeometry x="-90" y="1000" width="730" height="60" as="geometry" />
        </mxCell>
        <mxCell id="qClTNM0V3BNYC2tbr2i5-107" value="- entity&lt;br&gt;- repo&lt;br&gt;interface&lt;br&gt;impl&lt;br&gt;- services&lt;div&gt;&lt;br&gt;S3&lt;/div&gt;" style="text;html=1;align=center;verticalAlign=middle;whiteSpace=wrap;rounded=0;" parent="1" vertex="1">
          <mxGeometry x="-220" y="270" width="60" height="30" as="geometry" />
        </mxCell>
        <mxCell id="qClTNM0V3BNYC2tbr2i5-108" value="cron job =&amp;gt; spring scheduler&lt;br&gt;cron kuernetes =&amp;gt; &lt;br&gt;AWS lambda Python&lt;div&gt;&lt;br/&gt;&lt;/div&gt;" style="text;html=1;align=center;verticalAlign=middle;resizable=0;points=[];autosize=1;strokeColor=none;fillColor=none;" parent="1" vertex="1">
          <mxGeometry x="-205" y="-2" width="170" height="70" as="geometry" />
        </mxCell>
      </root>
    </mxGraphModel>
  </diagram>
  <diagram name="mediclaim" id="QlvbVEdHgM456Z_kPuW8">
    <mxGraphModel dx="1428" dy="783" grid="1" gridSize="10" guides="1" tooltips="1" connect="1" arrows="1" fold="1" page="1" pageScale="1" pageWidth="850" pageHeight="1100" math="0" shadow="0">
      <root>
        <mxCell id="URMiOYYluYE1icDq4xsw-0" />
        <mxCell id="URMiOYYluYE1icDq4xsw-1" parent="URMiOYYluYE1icDq4xsw-0" />
        <mxCell id="UJK31B_Thgl465KaxnlK-0" style="edgeStyle=orthogonalEdgeStyle;rounded=0;orthogonalLoop=1;jettySize=auto;html=1;entryX=0.5;entryY=1;entryDx=0;entryDy=0;strokeWidth=3;" edge="1" parent="URMiOYYluYE1icDq4xsw-1" source="UJK31B_Thgl465KaxnlK-2" target="UJK31B_Thgl465KaxnlK-7">
          <mxGeometry relative="1" as="geometry" />
        </mxCell>
        <mxCell id="UJK31B_Thgl465KaxnlK-1" value="&lt;font style=&quot;font-size: 18px;&quot;&gt;Step3: compare&lt;/font&gt;" style="edgeLabel;html=1;align=center;verticalAlign=middle;resizable=0;points=[];" vertex="1" connectable="0" parent="UJK31B_Thgl465KaxnlK-0">
          <mxGeometry x="-0.1333" y="2" relative="1" as="geometry">
            <mxPoint as="offset" />
          </mxGeometry>
        </mxCell>
        <mxCell id="UJK31B_Thgl465KaxnlK-2" value="&lt;font style=&quot;font-size: 15px;&quot;&gt;&lt;b&gt;platform NPHC&lt;/b&gt;&lt;/font&gt;" style="rounded=1;whiteSpace=wrap;html=1;" vertex="1" parent="URMiOYYluYE1icDq4xsw-1">
          <mxGeometry x="600" y="139" width="120" height="60" as="geometry" />
        </mxCell>
        <mxCell id="UJK31B_Thgl465KaxnlK-3" value="" style="curved=1;endArrow=classic;html=1;rounded=0;entryX=0;entryY=0.5;entryDx=0;entryDy=0;exitX=0.301;exitY=0.2;exitDx=0;exitDy=0;exitPerimeter=0;strokeColor=#FF3333;strokeWidth=3;" edge="1" parent="URMiOYYluYE1icDq4xsw-1" target="UJK31B_Thgl465KaxnlK-2">
          <mxGeometry width="50" height="50" relative="1" as="geometry">
            <mxPoint x="140" y="310" as="sourcePoint" />
            <mxPoint x="280" y="180" as="targetPoint" />
            <Array as="points">
              <mxPoint x="280" y="230" />
              <mxPoint x="230" y="180" />
            </Array>
          </mxGeometry>
        </mxCell>
        <mxCell id="UJK31B_Thgl465KaxnlK-4" value="&lt;font style=&quot;font-size: 20px;&quot;&gt;Step1: Migration&lt;/font&gt;" style="edgeLabel;html=1;align=center;verticalAlign=middle;resizable=0;points=[];" vertex="1" connectable="0" parent="UJK31B_Thgl465KaxnlK-3">
          <mxGeometry x="0.2097" y="-8" relative="1" as="geometry">
            <mxPoint as="offset" />
          </mxGeometry>
        </mxCell>
        <mxCell id="UJK31B_Thgl465KaxnlK-5" value="" style="endArrow=classic;html=1;entryX=0.25;entryY=1;entryDx=0;entryDy=0;curved=1;strokeWidth=3;strokeColor=#3333FF;" edge="1" parent="URMiOYYluYE1icDq4xsw-1" target="UJK31B_Thgl465KaxnlK-2">
          <mxGeometry width="50" height="50" relative="1" as="geometry">
            <mxPoint x="280" y="370" as="sourcePoint" />
            <mxPoint x="580" y="360" as="targetPoint" />
            <Array as="points">
              <mxPoint x="520" y="340" />
              <mxPoint x="530" y="380" />
              <mxPoint x="640" y="230" />
            </Array>
          </mxGeometry>
        </mxCell>
        <mxCell id="UJK31B_Thgl465KaxnlK-6" value="&lt;font style=&quot;font-size: 21px;&quot;&gt;Step2: Submission&lt;/font&gt;" style="edgeLabel;html=1;align=center;verticalAlign=middle;resizable=0;points=[];" vertex="1" connectable="0" parent="UJK31B_Thgl465KaxnlK-5">
          <mxGeometry x="0.4355" y="-2" relative="1" as="geometry">
            <mxPoint x="1" as="offset" />
          </mxGeometry>
        </mxCell>
        <mxCell id="UJK31B_Thgl465KaxnlK-7" value="&lt;b&gt;&lt;font style=&quot;font-size: 13px;&quot;&gt;R4 UAT NPHC Platform Data&lt;/font&gt;&lt;/b&gt;" style="rounded=1;whiteSpace=wrap;html=1;" vertex="1" parent="URMiOYYluYE1icDq4xsw-1">
          <mxGeometry x="600" y="4" width="120" height="50" as="geometry" />
        </mxCell>
      </root>
    </mxGraphModel>
  </diagram>
</mxfile>
